# xmcd CD database file
#
# Track frame offsets:
#	182
#	13085
#	25132
#	38515
#	52145
#	75442
#	88517
#	101767
#	115565
#	128392
#	141725
#	156502
#	170305
#	182075
#	195857
#	207772
#	221912
#
# Disc length: 3099 seconds
#
# Revision: 1
# Processed by: cddbd v1.4PL0 Copyright (c) Steve Scherf et al.
# Submitted via: NeoAudio 9.9.9
#
DISCID=df0c1911
DTITLE=Charlie Parker - 16 Greatest Hits
DYEAR=1988
DGENRE=Jazz
TTITLE0=Stupendous
TTITLE1=Bird's Nest
TTITLE2=Crazeology
TTITLE3=Parker's Mood
TTITLE4=How High The Moon
TTITLE5=Bebop
TTITLE6=Scrapple From The Apple
TTITLE7=Klact Overseds
TTITLE8=Koko
TTITLE9=Ornithologie
TTITLE10=Out Of Nowhere
TTITLE11=Hot House
TTITLE12=Groovin' High
TTITLE13=Moose The Mooche
TTITLE14=Yardbird Suite
TTITLE15=Bird Of Paradise
TTITLE16=Cool Blues (bonus)
EXTD=YEAR: 1988
EXTT0=
EXTT1=
EXTT2=
EXTT3=
EXTT4=
EXTT5=
EXTT6=
EXTT7=
EXTT8=
EXTT9=
EXTT10=
EXTT11=
EXTT12=
EXTT13=
EXTT14=
EXTT15=
EXTT16=
PLAYORDER=
